<mxfile host="app.diagrams.net" modified="2024-04-01T14:27:33.974Z" agent="Mozilla/5.0 (Windows NT 10.0; Win64; x64) AppleWebKit/537.36 (KHTML, like Gecko) Chrome/123.0.0.0 Safari/537.36 Edg/123.0.0.0" etag="tI4xlc2GlIYrQPj1FkJf" version="24.2.1" type="device">
  <diagram name="Seite-1" id="pW9wlhiQIGlPmQwoOEfV">
    <mxGraphModel dx="1226" dy="629" grid="1" gridSize="10" guides="1" tooltips="1" connect="1" arrows="1" fold="1" page="1" pageScale="1" pageWidth="827" pageHeight="1169" math="0" shadow="0">
      <root>
        <mxCell id="0" />
        <mxCell id="1" parent="0" />
        <mxCell id="MuZSCoOBj4eLxQXBnGzC-3" style="edgeStyle=orthogonalEdgeStyle;rounded=0;orthogonalLoop=1;jettySize=auto;html=1;exitX=0.5;exitY=1;exitDx=0;exitDy=0;entryX=0.5;entryY=0;entryDx=0;entryDy=0;" edge="1" parent="1" source="MuZSCoOBj4eLxQXBnGzC-1" target="MuZSCoOBj4eLxQXBnGzC-2">
          <mxGeometry relative="1" as="geometry" />
        </mxCell>
        <mxCell id="MuZSCoOBj4eLxQXBnGzC-1" value="Fill Request" style="rounded=1;whiteSpace=wrap;html=1;" vertex="1" parent="1">
          <mxGeometry x="360" width="120" height="40" as="geometry" />
        </mxCell>
        <mxCell id="MuZSCoOBj4eLxQXBnGzC-5" style="edgeStyle=orthogonalEdgeStyle;rounded=0;orthogonalLoop=1;jettySize=auto;html=1;exitX=0.5;exitY=1;exitDx=0;exitDy=0;entryX=0.5;entryY=0;entryDx=0;entryDy=0;" edge="1" parent="1" source="MuZSCoOBj4eLxQXBnGzC-2" target="MuZSCoOBj4eLxQXBnGzC-4">
          <mxGeometry relative="1" as="geometry" />
        </mxCell>
        <mxCell id="MuZSCoOBj4eLxQXBnGzC-2" value="Read MappingCache" style="rounded=0;whiteSpace=wrap;html=1;" vertex="1" parent="1">
          <mxGeometry x="360" y="80" width="120" height="40" as="geometry" />
        </mxCell>
        <mxCell id="MuZSCoOBj4eLxQXBnGzC-7" style="edgeStyle=orthogonalEdgeStyle;rounded=0;orthogonalLoop=1;jettySize=auto;html=1;exitX=0;exitY=0.5;exitDx=0;exitDy=0;entryX=1;entryY=0.5;entryDx=0;entryDy=0;" edge="1" parent="1" source="MuZSCoOBj4eLxQXBnGzC-4" target="MuZSCoOBj4eLxQXBnGzC-6">
          <mxGeometry relative="1" as="geometry" />
        </mxCell>
        <mxCell id="MuZSCoOBj4eLxQXBnGzC-8" value="No" style="edgeLabel;html=1;align=center;verticalAlign=middle;resizable=0;points=[];" vertex="1" connectable="0" parent="MuZSCoOBj4eLxQXBnGzC-7">
          <mxGeometry x="-0.4" y="1" relative="1" as="geometry">
            <mxPoint as="offset" />
          </mxGeometry>
        </mxCell>
        <mxCell id="MuZSCoOBj4eLxQXBnGzC-19" style="edgeStyle=orthogonalEdgeStyle;rounded=0;orthogonalLoop=1;jettySize=auto;html=1;exitX=1;exitY=0.5;exitDx=0;exitDy=0;entryX=0;entryY=0.5;entryDx=0;entryDy=0;" edge="1" parent="1" source="MuZSCoOBj4eLxQXBnGzC-4" target="MuZSCoOBj4eLxQXBnGzC-18">
          <mxGeometry relative="1" as="geometry" />
        </mxCell>
        <mxCell id="MuZSCoOBj4eLxQXBnGzC-20" value="Yes" style="edgeLabel;html=1;align=center;verticalAlign=middle;resizable=0;points=[];" vertex="1" connectable="0" parent="MuZSCoOBj4eLxQXBnGzC-19">
          <mxGeometry x="-0.1429" y="-1" relative="1" as="geometry">
            <mxPoint as="offset" />
          </mxGeometry>
        </mxCell>
        <mxCell id="MuZSCoOBj4eLxQXBnGzC-4" value="Found Item?" style="rhombus;whiteSpace=wrap;html=1;" vertex="1" parent="1">
          <mxGeometry x="380" y="160" width="80" height="80" as="geometry" />
        </mxCell>
        <mxCell id="MuZSCoOBj4eLxQXBnGzC-10" style="edgeStyle=orthogonalEdgeStyle;rounded=0;orthogonalLoop=1;jettySize=auto;html=1;exitX=0.5;exitY=1;exitDx=0;exitDy=0;entryX=0.5;entryY=0;entryDx=0;entryDy=0;" edge="1" parent="1" source="MuZSCoOBj4eLxQXBnGzC-6" target="MuZSCoOBj4eLxQXBnGzC-9">
          <mxGeometry relative="1" as="geometry" />
        </mxCell>
        <mxCell id="MuZSCoOBj4eLxQXBnGzC-6" value="Read App Data" style="rounded=0;whiteSpace=wrap;html=1;" vertex="1" parent="1">
          <mxGeometry x="200" y="180" width="120" height="40" as="geometry" />
        </mxCell>
        <mxCell id="MuZSCoOBj4eLxQXBnGzC-13" style="edgeStyle=orthogonalEdgeStyle;rounded=0;orthogonalLoop=1;jettySize=auto;html=1;exitX=0;exitY=0.5;exitDx=0;exitDy=0;entryX=0.5;entryY=0;entryDx=0;entryDy=0;" edge="1" parent="1" source="MuZSCoOBj4eLxQXBnGzC-9" target="MuZSCoOBj4eLxQXBnGzC-12">
          <mxGeometry relative="1" as="geometry" />
        </mxCell>
        <mxCell id="MuZSCoOBj4eLxQXBnGzC-16" value="No" style="edgeLabel;html=1;align=center;verticalAlign=middle;resizable=0;points=[];" vertex="1" connectable="0" parent="MuZSCoOBj4eLxQXBnGzC-13">
          <mxGeometry x="-0.6571" y="1" relative="1" as="geometry">
            <mxPoint as="offset" />
          </mxGeometry>
        </mxCell>
        <mxCell id="MuZSCoOBj4eLxQXBnGzC-15" style="edgeStyle=orthogonalEdgeStyle;rounded=0;orthogonalLoop=1;jettySize=auto;html=1;exitX=1;exitY=0.5;exitDx=0;exitDy=0;entryX=0.5;entryY=0;entryDx=0;entryDy=0;" edge="1" parent="1" source="MuZSCoOBj4eLxQXBnGzC-9" target="MuZSCoOBj4eLxQXBnGzC-14">
          <mxGeometry relative="1" as="geometry" />
        </mxCell>
        <mxCell id="MuZSCoOBj4eLxQXBnGzC-17" value="Yes" style="edgeLabel;html=1;align=center;verticalAlign=middle;resizable=0;points=[];" vertex="1" connectable="0" parent="MuZSCoOBj4eLxQXBnGzC-15">
          <mxGeometry x="-0.5619" y="-2" relative="1" as="geometry">
            <mxPoint as="offset" />
          </mxGeometry>
        </mxCell>
        <mxCell id="MuZSCoOBj4eLxQXBnGzC-9" value="Found Item?" style="rhombus;whiteSpace=wrap;html=1;" vertex="1" parent="1">
          <mxGeometry x="220" y="260" width="80" height="80" as="geometry" />
        </mxCell>
        <mxCell id="MuZSCoOBj4eLxQXBnGzC-12" value="Cancel" style="rounded=1;whiteSpace=wrap;html=1;" vertex="1" parent="1">
          <mxGeometry x="120" y="360" width="120" height="40" as="geometry" />
        </mxCell>
        <mxCell id="MuZSCoOBj4eLxQXBnGzC-43" style="edgeStyle=orthogonalEdgeStyle;rounded=0;orthogonalLoop=1;jettySize=auto;html=1;exitX=0.5;exitY=1;exitDx=0;exitDy=0;entryX=0.25;entryY=0;entryDx=0;entryDy=0;" edge="1" parent="1" source="MuZSCoOBj4eLxQXBnGzC-14" target="MuZSCoOBj4eLxQXBnGzC-40">
          <mxGeometry relative="1" as="geometry" />
        </mxCell>
        <mxCell id="MuZSCoOBj4eLxQXBnGzC-14" value="Update MappingCache &amp;amp; ContentCache" style="rounded=0;whiteSpace=wrap;html=1;" vertex="1" parent="1">
          <mxGeometry x="280" y="360" width="120" height="60" as="geometry" />
        </mxCell>
        <mxCell id="MuZSCoOBj4eLxQXBnGzC-22" style="edgeStyle=orthogonalEdgeStyle;rounded=0;orthogonalLoop=1;jettySize=auto;html=1;exitX=0.5;exitY=1;exitDx=0;exitDy=0;entryX=0.5;entryY=0;entryDx=0;entryDy=0;" edge="1" parent="1" source="MuZSCoOBj4eLxQXBnGzC-18" target="MuZSCoOBj4eLxQXBnGzC-21">
          <mxGeometry relative="1" as="geometry" />
        </mxCell>
        <mxCell id="MuZSCoOBj4eLxQXBnGzC-18" value="Read InvalidationCache" style="rounded=0;whiteSpace=wrap;html=1;" vertex="1" parent="1">
          <mxGeometry x="520" y="180" width="120" height="40" as="geometry" />
        </mxCell>
        <mxCell id="MuZSCoOBj4eLxQXBnGzC-24" style="edgeStyle=orthogonalEdgeStyle;rounded=0;orthogonalLoop=1;jettySize=auto;html=1;exitX=0;exitY=0.5;exitDx=0;exitDy=0;entryX=0.5;entryY=0;entryDx=0;entryDy=0;" edge="1" parent="1" source="MuZSCoOBj4eLxQXBnGzC-21" target="MuZSCoOBj4eLxQXBnGzC-23">
          <mxGeometry relative="1" as="geometry" />
        </mxCell>
        <mxCell id="MuZSCoOBj4eLxQXBnGzC-26" value="Yes" style="edgeLabel;html=1;align=center;verticalAlign=middle;resizable=0;points=[];" vertex="1" connectable="0" parent="MuZSCoOBj4eLxQXBnGzC-24">
          <mxGeometry x="-0.6229" y="1" relative="1" as="geometry">
            <mxPoint as="offset" />
          </mxGeometry>
        </mxCell>
        <mxCell id="MuZSCoOBj4eLxQXBnGzC-28" style="edgeStyle=orthogonalEdgeStyle;rounded=0;orthogonalLoop=1;jettySize=auto;html=1;exitX=1;exitY=0.5;exitDx=0;exitDy=0;entryX=0.5;entryY=0;entryDx=0;entryDy=0;" edge="1" parent="1" source="MuZSCoOBj4eLxQXBnGzC-21" target="MuZSCoOBj4eLxQXBnGzC-27">
          <mxGeometry relative="1" as="geometry" />
        </mxCell>
        <mxCell id="MuZSCoOBj4eLxQXBnGzC-29" value="No" style="edgeLabel;html=1;align=center;verticalAlign=middle;resizable=0;points=[];" vertex="1" connectable="0" parent="MuZSCoOBj4eLxQXBnGzC-28">
          <mxGeometry x="-0.6601" y="-1" relative="1" as="geometry">
            <mxPoint as="offset" />
          </mxGeometry>
        </mxCell>
        <mxCell id="MuZSCoOBj4eLxQXBnGzC-21" value="Is Item Valid?" style="rhombus;whiteSpace=wrap;html=1;" vertex="1" parent="1">
          <mxGeometry x="540" y="260" width="80" height="80" as="geometry" />
        </mxCell>
        <mxCell id="MuZSCoOBj4eLxQXBnGzC-42" style="edgeStyle=orthogonalEdgeStyle;rounded=0;orthogonalLoop=1;jettySize=auto;html=1;exitX=0.5;exitY=1;exitDx=0;exitDy=0;entryX=0.75;entryY=0;entryDx=0;entryDy=0;" edge="1" parent="1" source="MuZSCoOBj4eLxQXBnGzC-23" target="MuZSCoOBj4eLxQXBnGzC-40">
          <mxGeometry relative="1" as="geometry" />
        </mxCell>
        <mxCell id="MuZSCoOBj4eLxQXBnGzC-23" value="Read ContentCache" style="rounded=0;whiteSpace=wrap;html=1;" vertex="1" parent="1">
          <mxGeometry x="440" y="360" width="120" height="40" as="geometry" />
        </mxCell>
        <mxCell id="MuZSCoOBj4eLxQXBnGzC-31" style="edgeStyle=orthogonalEdgeStyle;rounded=0;orthogonalLoop=1;jettySize=auto;html=1;exitX=0.5;exitY=1;exitDx=0;exitDy=0;entryX=0.5;entryY=0;entryDx=0;entryDy=0;" edge="1" parent="1" source="MuZSCoOBj4eLxQXBnGzC-27" target="MuZSCoOBj4eLxQXBnGzC-30">
          <mxGeometry relative="1" as="geometry" />
        </mxCell>
        <mxCell id="MuZSCoOBj4eLxQXBnGzC-27" value="Read App Data" style="rounded=0;whiteSpace=wrap;html=1;" vertex="1" parent="1">
          <mxGeometry x="600" y="360" width="120" height="40" as="geometry" />
        </mxCell>
        <mxCell id="MuZSCoOBj4eLxQXBnGzC-33" style="edgeStyle=orthogonalEdgeStyle;rounded=0;orthogonalLoop=1;jettySize=auto;html=1;exitX=0;exitY=0.5;exitDx=0;exitDy=0;entryX=0.5;entryY=0;entryDx=0;entryDy=0;" edge="1" parent="1" source="MuZSCoOBj4eLxQXBnGzC-30" target="MuZSCoOBj4eLxQXBnGzC-32">
          <mxGeometry relative="1" as="geometry" />
        </mxCell>
        <mxCell id="MuZSCoOBj4eLxQXBnGzC-34" value="Yes" style="edgeLabel;html=1;align=center;verticalAlign=middle;resizable=0;points=[];" vertex="1" connectable="0" parent="MuZSCoOBj4eLxQXBnGzC-33">
          <mxGeometry x="-0.6906" y="1" relative="1" as="geometry">
            <mxPoint as="offset" />
          </mxGeometry>
        </mxCell>
        <mxCell id="MuZSCoOBj4eLxQXBnGzC-36" style="edgeStyle=orthogonalEdgeStyle;rounded=0;orthogonalLoop=1;jettySize=auto;html=1;exitX=1;exitY=0.5;exitDx=0;exitDy=0;entryX=0.5;entryY=0;entryDx=0;entryDy=0;" edge="1" parent="1" source="MuZSCoOBj4eLxQXBnGzC-30" target="MuZSCoOBj4eLxQXBnGzC-35">
          <mxGeometry relative="1" as="geometry" />
        </mxCell>
        <mxCell id="MuZSCoOBj4eLxQXBnGzC-37" value="No" style="edgeLabel;html=1;align=center;verticalAlign=middle;resizable=0;points=[];" vertex="1" connectable="0" parent="MuZSCoOBj4eLxQXBnGzC-36">
          <mxGeometry x="-0.4952" y="-1" relative="1" as="geometry">
            <mxPoint as="offset" />
          </mxGeometry>
        </mxCell>
        <mxCell id="MuZSCoOBj4eLxQXBnGzC-30" value="Found Item?" style="rhombus;whiteSpace=wrap;html=1;" vertex="1" parent="1">
          <mxGeometry x="620" y="440" width="80" height="80" as="geometry" />
        </mxCell>
        <mxCell id="MuZSCoOBj4eLxQXBnGzC-41" style="edgeStyle=orthogonalEdgeStyle;rounded=0;orthogonalLoop=1;jettySize=auto;html=1;exitX=0;exitY=0.5;exitDx=0;exitDy=0;entryX=1;entryY=0.5;entryDx=0;entryDy=0;" edge="1" parent="1" source="MuZSCoOBj4eLxQXBnGzC-32" target="MuZSCoOBj4eLxQXBnGzC-40">
          <mxGeometry relative="1" as="geometry" />
        </mxCell>
        <mxCell id="MuZSCoOBj4eLxQXBnGzC-32" value="Update MappingCache,&amp;nbsp; ContentCache &amp;amp; InvalidationCache" style="rounded=0;whiteSpace=wrap;html=1;" vertex="1" parent="1">
          <mxGeometry x="520" y="520" width="120" height="60" as="geometry" />
        </mxCell>
        <mxCell id="MuZSCoOBj4eLxQXBnGzC-39" style="edgeStyle=orthogonalEdgeStyle;rounded=0;orthogonalLoop=1;jettySize=auto;html=1;exitX=0.5;exitY=1;exitDx=0;exitDy=0;entryX=0.5;entryY=0;entryDx=0;entryDy=0;" edge="1" parent="1" source="MuZSCoOBj4eLxQXBnGzC-35" target="MuZSCoOBj4eLxQXBnGzC-38">
          <mxGeometry relative="1" as="geometry" />
        </mxCell>
        <mxCell id="MuZSCoOBj4eLxQXBnGzC-35" value="Remove Item from all Caches" style="rounded=0;whiteSpace=wrap;html=1;" vertex="1" parent="1">
          <mxGeometry x="680" y="520" width="120" height="40" as="geometry" />
        </mxCell>
        <mxCell id="MuZSCoOBj4eLxQXBnGzC-38" value="Cancel" style="rounded=1;whiteSpace=wrap;html=1;" vertex="1" parent="1">
          <mxGeometry x="680" y="600" width="120" height="40" as="geometry" />
        </mxCell>
        <mxCell id="MuZSCoOBj4eLxQXBnGzC-40" value="Success" style="rounded=1;whiteSpace=wrap;html=1;" vertex="1" parent="1">
          <mxGeometry x="360" y="530" width="120" height="40" as="geometry" />
        </mxCell>
      </root>
    </mxGraphModel>
  </diagram>
</mxfile>
